<mxfile host="Electron" modified="2023-05-09T13:50:21.777Z" agent="Mozilla/5.0 (Macintosh; Intel Mac OS X 10_15_7) AppleWebKit/537.36 (KHTML, like Gecko) draw.io/21.2.8 Chrome/112.0.5615.165 Electron/24.2.0 Safari/537.36" etag="_OPYC6p5GSObmn6MSrZS" version="21.2.8" type="device" pages="4">
  <diagram name="pattern1" id="arh3FIw3pBXTjxhgvzi6">
    <mxGraphModel dx="984" dy="718" grid="1" gridSize="10" guides="1" tooltips="1" connect="1" arrows="1" fold="1" page="1" pageScale="1" pageWidth="827" pageHeight="1169" math="0" shadow="0">
      <root>
        <mxCell id="0" />
        <mxCell id="1" parent="0" />
        <mxCell id="7u-3wQYrSJS738qDRrCc-1" value="" style="rounded=0;whiteSpace=wrap;html=1;" parent="1" vertex="1">
          <mxGeometry x="430" y="140" width="60" height="20" as="geometry" />
        </mxCell>
        <mxCell id="7u-3wQYrSJS738qDRrCc-2" value="" style="rounded=0;whiteSpace=wrap;html=1;" parent="1" vertex="1">
          <mxGeometry x="430" width="60" height="20" as="geometry" />
        </mxCell>
        <mxCell id="7u-3wQYrSJS738qDRrCc-3" value="" style="endArrow=baseDash;html=1;rounded=0;startArrow=baseDash;startFill=0;endFill=0;" parent="1" edge="1">
          <mxGeometry width="50" height="50" relative="1" as="geometry">
            <mxPoint x="400" y="100" as="sourcePoint" />
            <mxPoint x="520" y="100" as="targetPoint" />
          </mxGeometry>
        </mxCell>
        <mxCell id="7u-3wQYrSJS738qDRrCc-4" value="" style="endArrow=baseDash;html=1;rounded=0;startArrow=baseDash;startFill=0;endFill=0;" parent="1" edge="1">
          <mxGeometry width="50" height="50" relative="1" as="geometry">
            <mxPoint x="440" y="60" as="sourcePoint" />
            <mxPoint x="480" y="60" as="targetPoint" />
          </mxGeometry>
        </mxCell>
        <mxCell id="7u-3wQYrSJS738qDRrCc-5" value="" style="endArrow=baseDash;html=1;rounded=0;startArrow=baseDash;startFill=0;endFill=0;" parent="1" source="7u-3wQYrSJS738qDRrCc-24" edge="1">
          <mxGeometry width="50" height="50" relative="1" as="geometry">
            <mxPoint x="400" y="100" as="sourcePoint" />
            <mxPoint x="440" y="60" as="targetPoint" />
          </mxGeometry>
        </mxCell>
        <mxCell id="7u-3wQYrSJS738qDRrCc-6" value="" style="endArrow=baseDash;html=1;rounded=0;startArrow=baseDash;startFill=0;endFill=0;" parent="1" source="7u-3wQYrSJS738qDRrCc-26" edge="1">
          <mxGeometry width="50" height="50" relative="1" as="geometry">
            <mxPoint x="520" y="100" as="sourcePoint" />
            <mxPoint x="480" y="60" as="targetPoint" />
          </mxGeometry>
        </mxCell>
        <mxCell id="7u-3wQYrSJS738qDRrCc-7" value="" style="endArrow=baseDash;html=1;rounded=0;startArrow=baseDash;startFill=0;endFill=0;" parent="1" edge="1">
          <mxGeometry width="50" height="50" relative="1" as="geometry">
            <mxPoint x="480" y="60" as="sourcePoint" />
            <mxPoint x="520" y="100" as="targetPoint" />
            <Array as="points">
              <mxPoint x="560" y="60" />
              <mxPoint x="580" y="40" />
              <mxPoint x="640" y="40" />
              <mxPoint x="640" y="120" />
              <mxPoint x="580" y="120" />
              <mxPoint x="560" y="100" />
            </Array>
          </mxGeometry>
        </mxCell>
        <mxCell id="7u-3wQYrSJS738qDRrCc-8" value="j0a" style="text;html=1;strokeColor=none;fillColor=none;align=center;verticalAlign=middle;whiteSpace=wrap;rounded=0;fontFamily=Lucida Console;" parent="1" vertex="1">
          <mxGeometry x="390" y="110" width="40" height="20" as="geometry" />
        </mxCell>
        <mxCell id="7u-3wQYrSJS738qDRrCc-9" value="j0b" style="text;html=1;strokeColor=none;fillColor=none;align=center;verticalAlign=middle;whiteSpace=wrap;rounded=0;fontFamily=Lucida Console;" parent="1" vertex="1">
          <mxGeometry x="420" y="20" width="40" height="20" as="geometry" />
        </mxCell>
        <mxCell id="7u-3wQYrSJS738qDRrCc-10" value="j1a" style="text;html=1;strokeColor=none;fillColor=none;align=center;verticalAlign=middle;whiteSpace=wrap;rounded=0;fontFamily=Lucida Console;" parent="1" vertex="1">
          <mxGeometry x="500" y="110" width="40" height="20" as="geometry" />
        </mxCell>
        <mxCell id="7u-3wQYrSJS738qDRrCc-11" value="j1b" style="text;html=1;strokeColor=none;fillColor=none;align=center;verticalAlign=middle;whiteSpace=wrap;rounded=0;fontFamily=Lucida Console;" parent="1" vertex="1">
          <mxGeometry x="460" y="20" width="40" height="20" as="geometry" />
        </mxCell>
        <mxCell id="7u-3wQYrSJS738qDRrCc-12" value="s1" style="text;html=1;strokeColor=none;fillColor=none;align=center;verticalAlign=middle;whiteSpace=wrap;rounded=0;fontFamily=Lucida Console;" parent="1" vertex="1">
          <mxGeometry x="440" y="60" width="40" height="20" as="geometry" />
        </mxCell>
        <mxCell id="7u-3wQYrSJS738qDRrCc-13" value="s2" style="text;html=1;strokeColor=none;fillColor=none;align=center;verticalAlign=middle;whiteSpace=wrap;rounded=0;fontFamily=Lucida Console;" parent="1" vertex="1">
          <mxGeometry x="600" y="70" width="40" height="20" as="geometry" />
        </mxCell>
        <mxCell id="7u-3wQYrSJS738qDRrCc-14" value="s3" style="text;html=1;strokeColor=none;fillColor=none;align=center;verticalAlign=middle;whiteSpace=wrap;rounded=0;fontFamily=Lucida Console;" parent="1" vertex="1">
          <mxGeometry x="440" y="120" width="40" height="20" as="geometry" />
        </mxCell>
        <mxCell id="7u-3wQYrSJS738qDRrCc-15" value="s4" style="text;html=1;strokeColor=none;fillColor=none;align=center;verticalAlign=middle;whiteSpace=wrap;rounded=0;fontFamily=Lucida Console;" parent="1" vertex="1">
          <mxGeometry x="380" y="70" width="40" height="20" as="geometry" />
        </mxCell>
        <mxCell id="7u-3wQYrSJS738qDRrCc-16" value="s5" style="text;html=1;strokeColor=none;fillColor=none;align=center;verticalAlign=middle;whiteSpace=wrap;rounded=0;fontFamily=Lucida Console;" parent="1" vertex="1">
          <mxGeometry x="500" y="70" width="40" height="20" as="geometry" />
        </mxCell>
        <mxCell id="7u-3wQYrSJS738qDRrCc-18" value="" style="endArrow=none;html=1;rounded=0;" parent="1" source="7u-3wQYrSJS738qDRrCc-21" edge="1">
          <mxGeometry width="50" height="50" relative="1" as="geometry">
            <mxPoint x="370" y="60" as="sourcePoint" />
            <mxPoint x="440" y="60" as="targetPoint" />
          </mxGeometry>
        </mxCell>
        <mxCell id="7u-3wQYrSJS738qDRrCc-19" value="" style="endArrow=none;html=1;rounded=0;" parent="1" edge="1">
          <mxGeometry width="50" height="50" relative="1" as="geometry">
            <mxPoint x="370" y="100" as="sourcePoint" />
            <mxPoint x="400" y="100" as="targetPoint" />
          </mxGeometry>
        </mxCell>
        <mxCell id="7u-3wQYrSJS738qDRrCc-22" value="" style="endArrow=none;html=1;rounded=0;" parent="1" target="7u-3wQYrSJS738qDRrCc-21" edge="1">
          <mxGeometry width="50" height="50" relative="1" as="geometry">
            <mxPoint x="370" y="60" as="sourcePoint" />
            <mxPoint x="440" y="60" as="targetPoint" />
          </mxGeometry>
        </mxCell>
        <mxCell id="7u-3wQYrSJS738qDRrCc-21" value="" style="ellipse;whiteSpace=wrap;html=1;aspect=fixed;" parent="1" vertex="1">
          <mxGeometry x="430" y="50" width="20" height="20" as="geometry" />
        </mxCell>
        <mxCell id="7u-3wQYrSJS738qDRrCc-23" value="" style="ellipse;whiteSpace=wrap;html=1;aspect=fixed;" parent="1" vertex="1">
          <mxGeometry x="470" y="50" width="20" height="20" as="geometry" />
        </mxCell>
        <mxCell id="7u-3wQYrSJS738qDRrCc-25" value="" style="endArrow=baseDash;html=1;rounded=0;startArrow=baseDash;startFill=0;endFill=0;" parent="1" target="7u-3wQYrSJS738qDRrCc-24" edge="1">
          <mxGeometry width="50" height="50" relative="1" as="geometry">
            <mxPoint x="400" y="100" as="sourcePoint" />
            <mxPoint x="440" y="60" as="targetPoint" />
          </mxGeometry>
        </mxCell>
        <mxCell id="7u-3wQYrSJS738qDRrCc-24" value="" style="ellipse;whiteSpace=wrap;html=1;aspect=fixed;" parent="1" vertex="1">
          <mxGeometry x="390" y="90" width="20" height="20" as="geometry" />
        </mxCell>
        <mxCell id="7u-3wQYrSJS738qDRrCc-27" value="" style="endArrow=baseDash;html=1;rounded=0;startArrow=baseDash;startFill=0;endFill=0;" parent="1" target="7u-3wQYrSJS738qDRrCc-26" edge="1">
          <mxGeometry width="50" height="50" relative="1" as="geometry">
            <mxPoint x="520" y="100" as="sourcePoint" />
            <mxPoint x="480" y="60" as="targetPoint" />
          </mxGeometry>
        </mxCell>
        <mxCell id="7u-3wQYrSJS738qDRrCc-26" value="" style="ellipse;whiteSpace=wrap;html=1;aspect=fixed;" parent="1" vertex="1">
          <mxGeometry x="510" y="90" width="20" height="20" as="geometry" />
        </mxCell>
        <mxCell id="7u-3wQYrSJS738qDRrCc-28" value="" style="endArrow=none;html=1;rounded=0;fillColor=#e51400;strokeColor=#0000FF;strokeWidth=2;exitX=0;exitY=0.5;exitDx=0;exitDy=0;entryX=1;entryY=0.5;entryDx=0;entryDy=0;" parent="1" source="7u-3wQYrSJS738qDRrCc-21" target="7u-3wQYrSJS738qDRrCc-21" edge="1">
          <mxGeometry width="50" height="50" relative="1" as="geometry">
            <mxPoint x="320" y="70" as="sourcePoint" />
            <mxPoint x="350" y="60" as="targetPoint" />
          </mxGeometry>
        </mxCell>
        <mxCell id="7u-3wQYrSJS738qDRrCc-29" value="" style="endArrow=none;html=1;rounded=0;fillColor=#e51400;strokeColor=#0000FF;strokeWidth=2;exitX=0;exitY=0.5;exitDx=0;exitDy=0;entryX=1;entryY=0.5;entryDx=0;entryDy=0;" parent="1" edge="1">
          <mxGeometry width="50" height="50" relative="1" as="geometry">
            <mxPoint x="470" y="60" as="sourcePoint" />
            <mxPoint x="490" y="60" as="targetPoint" />
          </mxGeometry>
        </mxCell>
        <mxCell id="7u-3wQYrSJS738qDRrCc-30" value="" style="endArrow=none;html=1;rounded=0;fillColor=#e51400;strokeColor=#0000FF;strokeWidth=2;exitX=1;exitY=0.5;exitDx=0;exitDy=0;entryX=0;entryY=0.5;entryDx=0;entryDy=0;" parent="1" source="7u-3wQYrSJS738qDRrCc-24" target="7u-3wQYrSJS738qDRrCc-24" edge="1">
          <mxGeometry width="50" height="50" relative="1" as="geometry">
            <mxPoint x="450" y="80" as="sourcePoint" />
            <mxPoint x="470" y="80" as="targetPoint" />
          </mxGeometry>
        </mxCell>
        <mxCell id="7u-3wQYrSJS738qDRrCc-31" value="" style="endArrow=none;html=1;rounded=0;fillColor=#e51400;strokeColor=#0000FF;strokeWidth=2;exitX=0;exitY=0.5;exitDx=0;exitDy=0;entryX=1;entryY=0.5;entryDx=0;entryDy=0;" parent="1" edge="1">
          <mxGeometry width="50" height="50" relative="1" as="geometry">
            <mxPoint x="510" y="99.82" as="sourcePoint" />
            <mxPoint x="530" y="99.82" as="targetPoint" />
          </mxGeometry>
        </mxCell>
      </root>
    </mxGraphModel>
  </diagram>
  <diagram name="pattern2" id="spZ5XvLSFX5mMCUu9n3Z">
    <mxGraphModel dx="181" dy="132" grid="1" gridSize="10" guides="1" tooltips="1" connect="1" arrows="1" fold="1" page="1" pageScale="1" pageWidth="827" pageHeight="1169" math="0" shadow="0">
      <root>
        <mxCell id="KMXKlcnqYH1HJKnBzze7-0" />
        <mxCell id="KMXKlcnqYH1HJKnBzze7-1" parent="KMXKlcnqYH1HJKnBzze7-0" />
        <mxCell id="KMXKlcnqYH1HJKnBzze7-2" value="" style="rounded=0;whiteSpace=wrap;html=1;" parent="KMXKlcnqYH1HJKnBzze7-1" vertex="1">
          <mxGeometry x="430" y="140" width="60" height="20" as="geometry" />
        </mxCell>
        <mxCell id="KMXKlcnqYH1HJKnBzze7-3" value="" style="rounded=0;whiteSpace=wrap;html=1;" parent="KMXKlcnqYH1HJKnBzze7-1" vertex="1">
          <mxGeometry x="430" width="60" height="20" as="geometry" />
        </mxCell>
        <mxCell id="KMXKlcnqYH1HJKnBzze7-4" value="" style="endArrow=baseDash;html=1;rounded=0;startArrow=baseDash;startFill=0;endFill=0;" parent="KMXKlcnqYH1HJKnBzze7-1" edge="1">
          <mxGeometry width="50" height="50" relative="1" as="geometry">
            <mxPoint x="400" y="100" as="sourcePoint" />
            <mxPoint x="520" y="100" as="targetPoint" />
          </mxGeometry>
        </mxCell>
        <mxCell id="KMXKlcnqYH1HJKnBzze7-5" value="" style="endArrow=baseDash;html=1;rounded=0;startArrow=baseDash;startFill=0;endFill=0;" parent="KMXKlcnqYH1HJKnBzze7-1" edge="1">
          <mxGeometry width="50" height="50" relative="1" as="geometry">
            <mxPoint x="440" y="60" as="sourcePoint" />
            <mxPoint x="480" y="60" as="targetPoint" />
          </mxGeometry>
        </mxCell>
        <mxCell id="KMXKlcnqYH1HJKnBzze7-6" value="" style="endArrow=baseDash;html=1;rounded=0;startArrow=baseDash;startFill=0;endFill=0;" parent="KMXKlcnqYH1HJKnBzze7-1" source="KMXKlcnqYH1HJKnBzze7-24" edge="1">
          <mxGeometry width="50" height="50" relative="1" as="geometry">
            <mxPoint x="400" y="100" as="sourcePoint" />
            <mxPoint x="440" y="60" as="targetPoint" />
          </mxGeometry>
        </mxCell>
        <mxCell id="KMXKlcnqYH1HJKnBzze7-7" value="" style="endArrow=baseDash;html=1;rounded=0;startArrow=baseDash;startFill=0;endFill=0;" parent="KMXKlcnqYH1HJKnBzze7-1" source="KMXKlcnqYH1HJKnBzze7-26" edge="1">
          <mxGeometry width="50" height="50" relative="1" as="geometry">
            <mxPoint x="520" y="100" as="sourcePoint" />
            <mxPoint x="480" y="60" as="targetPoint" />
          </mxGeometry>
        </mxCell>
        <mxCell id="KMXKlcnqYH1HJKnBzze7-8" value="" style="endArrow=baseDash;html=1;rounded=0;startArrow=baseDash;startFill=0;endFill=0;" parent="KMXKlcnqYH1HJKnBzze7-1" edge="1">
          <mxGeometry width="50" height="50" relative="1" as="geometry">
            <mxPoint x="480" y="60" as="sourcePoint" />
            <mxPoint x="520" y="100" as="targetPoint" />
            <Array as="points">
              <mxPoint x="560" y="60" />
              <mxPoint x="580" y="40" />
              <mxPoint x="640" y="40" />
              <mxPoint x="640" y="120" />
              <mxPoint x="580" y="120" />
              <mxPoint x="560" y="100" />
            </Array>
          </mxGeometry>
        </mxCell>
        <mxCell id="KMXKlcnqYH1HJKnBzze7-9" value="j0a" style="text;html=1;strokeColor=none;fillColor=none;align=center;verticalAlign=middle;whiteSpace=wrap;rounded=0;fontFamily=Lucida Console;" parent="KMXKlcnqYH1HJKnBzze7-1" vertex="1">
          <mxGeometry x="390" y="110" width="40" height="20" as="geometry" />
        </mxCell>
        <mxCell id="KMXKlcnqYH1HJKnBzze7-10" value="j0b" style="text;html=1;strokeColor=none;fillColor=none;align=center;verticalAlign=middle;whiteSpace=wrap;rounded=0;fontFamily=Lucida Console;" parent="KMXKlcnqYH1HJKnBzze7-1" vertex="1">
          <mxGeometry x="420" y="20" width="40" height="20" as="geometry" />
        </mxCell>
        <mxCell id="KMXKlcnqYH1HJKnBzze7-11" value="j1a" style="text;html=1;strokeColor=none;fillColor=none;align=center;verticalAlign=middle;whiteSpace=wrap;rounded=0;fontFamily=Lucida Console;" parent="KMXKlcnqYH1HJKnBzze7-1" vertex="1">
          <mxGeometry x="500" y="110" width="40" height="20" as="geometry" />
        </mxCell>
        <mxCell id="KMXKlcnqYH1HJKnBzze7-12" value="j1b" style="text;html=1;strokeColor=none;fillColor=none;align=center;verticalAlign=middle;whiteSpace=wrap;rounded=0;fontFamily=Lucida Console;" parent="KMXKlcnqYH1HJKnBzze7-1" vertex="1">
          <mxGeometry x="460" y="20" width="40" height="20" as="geometry" />
        </mxCell>
        <mxCell id="KMXKlcnqYH1HJKnBzze7-13" value="s1" style="text;html=1;strokeColor=none;fillColor=none;align=center;verticalAlign=middle;whiteSpace=wrap;rounded=0;fontFamily=Lucida Console;" parent="KMXKlcnqYH1HJKnBzze7-1" vertex="1">
          <mxGeometry x="440" y="60" width="40" height="20" as="geometry" />
        </mxCell>
        <mxCell id="KMXKlcnqYH1HJKnBzze7-14" value="s2" style="text;html=1;strokeColor=none;fillColor=none;align=center;verticalAlign=middle;whiteSpace=wrap;rounded=0;fontFamily=Lucida Console;" parent="KMXKlcnqYH1HJKnBzze7-1" vertex="1">
          <mxGeometry x="600" y="70" width="40" height="20" as="geometry" />
        </mxCell>
        <mxCell id="KMXKlcnqYH1HJKnBzze7-15" value="s3" style="text;html=1;strokeColor=none;fillColor=none;align=center;verticalAlign=middle;whiteSpace=wrap;rounded=0;fontFamily=Lucida Console;" parent="KMXKlcnqYH1HJKnBzze7-1" vertex="1">
          <mxGeometry x="440" y="120" width="40" height="20" as="geometry" />
        </mxCell>
        <mxCell id="KMXKlcnqYH1HJKnBzze7-16" value="s4" style="text;html=1;strokeColor=none;fillColor=none;align=center;verticalAlign=middle;whiteSpace=wrap;rounded=0;fontFamily=Lucida Console;" parent="KMXKlcnqYH1HJKnBzze7-1" vertex="1">
          <mxGeometry x="380" y="70" width="40" height="20" as="geometry" />
        </mxCell>
        <mxCell id="KMXKlcnqYH1HJKnBzze7-17" value="s5" style="text;html=1;strokeColor=none;fillColor=none;align=center;verticalAlign=middle;whiteSpace=wrap;rounded=0;fontFamily=Lucida Console;" parent="KMXKlcnqYH1HJKnBzze7-1" vertex="1">
          <mxGeometry x="500" y="70" width="40" height="20" as="geometry" />
        </mxCell>
        <mxCell id="KMXKlcnqYH1HJKnBzze7-18" value="" style="endArrow=none;html=1;rounded=0;" parent="KMXKlcnqYH1HJKnBzze7-1" source="KMXKlcnqYH1HJKnBzze7-21" edge="1">
          <mxGeometry width="50" height="50" relative="1" as="geometry">
            <mxPoint x="370" y="60" as="sourcePoint" />
            <mxPoint x="440" y="60" as="targetPoint" />
          </mxGeometry>
        </mxCell>
        <mxCell id="KMXKlcnqYH1HJKnBzze7-19" value="" style="endArrow=none;html=1;rounded=0;" parent="KMXKlcnqYH1HJKnBzze7-1" edge="1">
          <mxGeometry width="50" height="50" relative="1" as="geometry">
            <mxPoint x="370" y="100" as="sourcePoint" />
            <mxPoint x="400" y="100" as="targetPoint" />
          </mxGeometry>
        </mxCell>
        <mxCell id="KMXKlcnqYH1HJKnBzze7-20" value="" style="endArrow=none;html=1;rounded=0;" parent="KMXKlcnqYH1HJKnBzze7-1" target="KMXKlcnqYH1HJKnBzze7-21" edge="1">
          <mxGeometry width="50" height="50" relative="1" as="geometry">
            <mxPoint x="370" y="60" as="sourcePoint" />
            <mxPoint x="440" y="60" as="targetPoint" />
          </mxGeometry>
        </mxCell>
        <mxCell id="KMXKlcnqYH1HJKnBzze7-21" value="" style="ellipse;whiteSpace=wrap;html=1;aspect=fixed;" parent="KMXKlcnqYH1HJKnBzze7-1" vertex="1">
          <mxGeometry x="430" y="50" width="20" height="20" as="geometry" />
        </mxCell>
        <mxCell id="KMXKlcnqYH1HJKnBzze7-22" value="" style="ellipse;whiteSpace=wrap;html=1;aspect=fixed;" parent="KMXKlcnqYH1HJKnBzze7-1" vertex="1">
          <mxGeometry x="470" y="50" width="20" height="20" as="geometry" />
        </mxCell>
        <mxCell id="KMXKlcnqYH1HJKnBzze7-23" value="" style="endArrow=baseDash;html=1;rounded=0;startArrow=baseDash;startFill=0;endFill=0;" parent="KMXKlcnqYH1HJKnBzze7-1" target="KMXKlcnqYH1HJKnBzze7-24" edge="1">
          <mxGeometry width="50" height="50" relative="1" as="geometry">
            <mxPoint x="400" y="100" as="sourcePoint" />
            <mxPoint x="440" y="60" as="targetPoint" />
          </mxGeometry>
        </mxCell>
        <mxCell id="KMXKlcnqYH1HJKnBzze7-24" value="" style="ellipse;whiteSpace=wrap;html=1;aspect=fixed;" parent="KMXKlcnqYH1HJKnBzze7-1" vertex="1">
          <mxGeometry x="390" y="90" width="20" height="20" as="geometry" />
        </mxCell>
        <mxCell id="KMXKlcnqYH1HJKnBzze7-25" value="" style="endArrow=baseDash;html=1;rounded=0;startArrow=baseDash;startFill=0;endFill=0;" parent="KMXKlcnqYH1HJKnBzze7-1" target="KMXKlcnqYH1HJKnBzze7-26" edge="1">
          <mxGeometry width="50" height="50" relative="1" as="geometry">
            <mxPoint x="520" y="100" as="sourcePoint" />
            <mxPoint x="480" y="60" as="targetPoint" />
          </mxGeometry>
        </mxCell>
        <mxCell id="KMXKlcnqYH1HJKnBzze7-26" value="" style="ellipse;whiteSpace=wrap;html=1;aspect=fixed;" parent="KMXKlcnqYH1HJKnBzze7-1" vertex="1">
          <mxGeometry x="510" y="90" width="20" height="20" as="geometry" />
        </mxCell>
        <mxCell id="KMXKlcnqYH1HJKnBzze7-27" value="" style="endArrow=none;html=1;rounded=0;fillColor=#e51400;strokeColor=#0000FF;strokeWidth=2;exitX=0;exitY=1;exitDx=0;exitDy=0;entryX=1;entryY=0;entryDx=0;entryDy=0;" parent="KMXKlcnqYH1HJKnBzze7-1" source="KMXKlcnqYH1HJKnBzze7-21" target="KMXKlcnqYH1HJKnBzze7-21" edge="1">
          <mxGeometry width="50" height="50" relative="1" as="geometry">
            <mxPoint x="320" y="70" as="sourcePoint" />
            <mxPoint x="350" y="60" as="targetPoint" />
          </mxGeometry>
        </mxCell>
        <mxCell id="KMXKlcnqYH1HJKnBzze7-28" value="" style="endArrow=none;html=1;rounded=0;fillColor=#e51400;strokeColor=#0000FF;strokeWidth=2;exitX=0;exitY=0.5;exitDx=0;exitDy=0;entryX=1;entryY=0.5;entryDx=0;entryDy=0;" parent="KMXKlcnqYH1HJKnBzze7-1" edge="1">
          <mxGeometry width="50" height="50" relative="1" as="geometry">
            <mxPoint x="470" y="60" as="sourcePoint" />
            <mxPoint x="490" y="60" as="targetPoint" />
          </mxGeometry>
        </mxCell>
        <mxCell id="KMXKlcnqYH1HJKnBzze7-29" value="" style="endArrow=none;html=1;rounded=0;fillColor=#e51400;strokeColor=#0000FF;strokeWidth=2;exitX=1;exitY=0;exitDx=0;exitDy=0;entryX=0;entryY=1;entryDx=0;entryDy=0;" parent="KMXKlcnqYH1HJKnBzze7-1" source="KMXKlcnqYH1HJKnBzze7-24" target="KMXKlcnqYH1HJKnBzze7-24" edge="1">
          <mxGeometry width="50" height="50" relative="1" as="geometry">
            <mxPoint x="450" y="80" as="sourcePoint" />
            <mxPoint x="470" y="80" as="targetPoint" />
          </mxGeometry>
        </mxCell>
        <mxCell id="KMXKlcnqYH1HJKnBzze7-30" value="" style="endArrow=none;html=1;rounded=0;fillColor=#e51400;strokeColor=#0000FF;strokeWidth=2;exitX=0;exitY=0.5;exitDx=0;exitDy=0;entryX=1;entryY=0.5;entryDx=0;entryDy=0;" parent="KMXKlcnqYH1HJKnBzze7-1" edge="1">
          <mxGeometry width="50" height="50" relative="1" as="geometry">
            <mxPoint x="510" y="99.82" as="sourcePoint" />
            <mxPoint x="530" y="99.82" as="targetPoint" />
          </mxGeometry>
        </mxCell>
      </root>
    </mxGraphModel>
  </diagram>
  <diagram name="pattern3" id="a9ny2blX0CzjCBRiFFUc">
    <mxGraphModel dx="984" dy="718" grid="1" gridSize="10" guides="1" tooltips="1" connect="1" arrows="1" fold="1" page="1" pageScale="1" pageWidth="827" pageHeight="1169" math="0" shadow="0">
      <root>
        <mxCell id="-IiezHLQpp2U1VbSaJ5H-0" />
        <mxCell id="-IiezHLQpp2U1VbSaJ5H-1" parent="-IiezHLQpp2U1VbSaJ5H-0" />
        <mxCell id="-IiezHLQpp2U1VbSaJ5H-2" value="" style="rounded=0;whiteSpace=wrap;html=1;" parent="-IiezHLQpp2U1VbSaJ5H-1" vertex="1">
          <mxGeometry x="430" y="140" width="60" height="20" as="geometry" />
        </mxCell>
        <mxCell id="-IiezHLQpp2U1VbSaJ5H-3" value="" style="rounded=0;whiteSpace=wrap;html=1;" parent="-IiezHLQpp2U1VbSaJ5H-1" vertex="1">
          <mxGeometry x="430" width="60" height="20" as="geometry" />
        </mxCell>
        <mxCell id="-IiezHLQpp2U1VbSaJ5H-4" value="" style="endArrow=baseDash;html=1;rounded=0;startArrow=baseDash;startFill=0;endFill=0;fillColor=#e51400;strokeColor=#B20000;" parent="-IiezHLQpp2U1VbSaJ5H-1" edge="1">
          <mxGeometry width="50" height="50" relative="1" as="geometry">
            <mxPoint x="400" y="100" as="sourcePoint" />
            <mxPoint x="520" y="100" as="targetPoint" />
          </mxGeometry>
        </mxCell>
        <mxCell id="-IiezHLQpp2U1VbSaJ5H-5" value="" style="endArrow=baseDash;html=1;rounded=0;startArrow=baseDash;startFill=0;endFill=0;" parent="-IiezHLQpp2U1VbSaJ5H-1" edge="1">
          <mxGeometry width="50" height="50" relative="1" as="geometry">
            <mxPoint x="440" y="60" as="sourcePoint" />
            <mxPoint x="480" y="60" as="targetPoint" />
          </mxGeometry>
        </mxCell>
        <mxCell id="-IiezHLQpp2U1VbSaJ5H-6" value="" style="endArrow=baseDash;html=1;rounded=0;startArrow=baseDash;startFill=0;endFill=0;" parent="-IiezHLQpp2U1VbSaJ5H-1" source="-IiezHLQpp2U1VbSaJ5H-24" edge="1">
          <mxGeometry width="50" height="50" relative="1" as="geometry">
            <mxPoint x="400" y="100" as="sourcePoint" />
            <mxPoint x="440" y="60" as="targetPoint" />
          </mxGeometry>
        </mxCell>
        <mxCell id="-IiezHLQpp2U1VbSaJ5H-7" value="" style="endArrow=baseDash;html=1;rounded=0;startArrow=baseDash;startFill=0;endFill=0;" parent="-IiezHLQpp2U1VbSaJ5H-1" source="-IiezHLQpp2U1VbSaJ5H-26" edge="1">
          <mxGeometry width="50" height="50" relative="1" as="geometry">
            <mxPoint x="520" y="100" as="sourcePoint" />
            <mxPoint x="480" y="60" as="targetPoint" />
          </mxGeometry>
        </mxCell>
        <mxCell id="-IiezHLQpp2U1VbSaJ5H-8" value="" style="endArrow=baseDash;html=1;rounded=0;startArrow=baseDash;startFill=0;endFill=0;" parent="-IiezHLQpp2U1VbSaJ5H-1" edge="1">
          <mxGeometry width="50" height="50" relative="1" as="geometry">
            <mxPoint x="480" y="60" as="sourcePoint" />
            <mxPoint x="520" y="100" as="targetPoint" />
            <Array as="points">
              <mxPoint x="560" y="60" />
              <mxPoint x="580" y="40" />
              <mxPoint x="640" y="40" />
              <mxPoint x="640" y="120" />
              <mxPoint x="580" y="120" />
              <mxPoint x="560" y="100" />
            </Array>
          </mxGeometry>
        </mxCell>
        <mxCell id="-IiezHLQpp2U1VbSaJ5H-9" value="j0a" style="text;html=1;strokeColor=none;fillColor=none;align=center;verticalAlign=middle;whiteSpace=wrap;rounded=0;fontFamily=Lucida Console;" parent="-IiezHLQpp2U1VbSaJ5H-1" vertex="1">
          <mxGeometry x="390" y="110" width="40" height="20" as="geometry" />
        </mxCell>
        <mxCell id="-IiezHLQpp2U1VbSaJ5H-10" value="j0b" style="text;html=1;strokeColor=none;fillColor=none;align=center;verticalAlign=middle;whiteSpace=wrap;rounded=0;fontFamily=Lucida Console;" parent="-IiezHLQpp2U1VbSaJ5H-1" vertex="1">
          <mxGeometry x="420" y="20" width="40" height="20" as="geometry" />
        </mxCell>
        <mxCell id="-IiezHLQpp2U1VbSaJ5H-11" value="j1a" style="text;html=1;strokeColor=none;fillColor=none;align=center;verticalAlign=middle;whiteSpace=wrap;rounded=0;fontFamily=Lucida Console;" parent="-IiezHLQpp2U1VbSaJ5H-1" vertex="1">
          <mxGeometry x="500" y="110" width="40" height="20" as="geometry" />
        </mxCell>
        <mxCell id="-IiezHLQpp2U1VbSaJ5H-12" value="j1b" style="text;html=1;strokeColor=none;fillColor=none;align=center;verticalAlign=middle;whiteSpace=wrap;rounded=0;fontFamily=Lucida Console;" parent="-IiezHLQpp2U1VbSaJ5H-1" vertex="1">
          <mxGeometry x="460" y="20" width="40" height="20" as="geometry" />
        </mxCell>
        <mxCell id="-IiezHLQpp2U1VbSaJ5H-13" value="s1" style="text;html=1;strokeColor=none;fillColor=none;align=center;verticalAlign=middle;whiteSpace=wrap;rounded=0;fontFamily=Lucida Console;" parent="-IiezHLQpp2U1VbSaJ5H-1" vertex="1">
          <mxGeometry x="440" y="60" width="40" height="20" as="geometry" />
        </mxCell>
        <mxCell id="-IiezHLQpp2U1VbSaJ5H-14" value="s2" style="text;html=1;strokeColor=none;fillColor=none;align=center;verticalAlign=middle;whiteSpace=wrap;rounded=0;fontFamily=Lucida Console;" parent="-IiezHLQpp2U1VbSaJ5H-1" vertex="1">
          <mxGeometry x="600" y="70" width="40" height="20" as="geometry" />
        </mxCell>
        <mxCell id="-IiezHLQpp2U1VbSaJ5H-15" value="s3" style="text;html=1;strokeColor=none;fillColor=none;align=center;verticalAlign=middle;whiteSpace=wrap;rounded=0;fontFamily=Lucida Console;" parent="-IiezHLQpp2U1VbSaJ5H-1" vertex="1">
          <mxGeometry x="440" y="120" width="40" height="20" as="geometry" />
        </mxCell>
        <mxCell id="-IiezHLQpp2U1VbSaJ5H-16" value="s4" style="text;html=1;strokeColor=none;fillColor=none;align=center;verticalAlign=middle;whiteSpace=wrap;rounded=0;fontFamily=Lucida Console;" parent="-IiezHLQpp2U1VbSaJ5H-1" vertex="1">
          <mxGeometry x="380" y="70" width="40" height="20" as="geometry" />
        </mxCell>
        <mxCell id="-IiezHLQpp2U1VbSaJ5H-17" value="s5" style="text;html=1;strokeColor=none;fillColor=none;align=center;verticalAlign=middle;whiteSpace=wrap;rounded=0;fontFamily=Lucida Console;" parent="-IiezHLQpp2U1VbSaJ5H-1" vertex="1">
          <mxGeometry x="500" y="70" width="40" height="20" as="geometry" />
        </mxCell>
        <mxCell id="-IiezHLQpp2U1VbSaJ5H-18" value="" style="endArrow=none;html=1;rounded=0;" parent="-IiezHLQpp2U1VbSaJ5H-1" source="-IiezHLQpp2U1VbSaJ5H-21" edge="1">
          <mxGeometry width="50" height="50" relative="1" as="geometry">
            <mxPoint x="370" y="60" as="sourcePoint" />
            <mxPoint x="440" y="60" as="targetPoint" />
          </mxGeometry>
        </mxCell>
        <mxCell id="-IiezHLQpp2U1VbSaJ5H-19" value="" style="endArrow=none;html=1;rounded=0;" parent="-IiezHLQpp2U1VbSaJ5H-1" edge="1">
          <mxGeometry width="50" height="50" relative="1" as="geometry">
            <mxPoint x="370" y="100" as="sourcePoint" />
            <mxPoint x="400" y="100" as="targetPoint" />
          </mxGeometry>
        </mxCell>
        <mxCell id="-IiezHLQpp2U1VbSaJ5H-20" value="" style="endArrow=none;html=1;rounded=0;" parent="-IiezHLQpp2U1VbSaJ5H-1" target="-IiezHLQpp2U1VbSaJ5H-21" edge="1">
          <mxGeometry width="50" height="50" relative="1" as="geometry">
            <mxPoint x="370" y="60" as="sourcePoint" />
            <mxPoint x="440" y="60" as="targetPoint" />
          </mxGeometry>
        </mxCell>
        <mxCell id="-IiezHLQpp2U1VbSaJ5H-21" value="" style="ellipse;whiteSpace=wrap;html=1;aspect=fixed;" parent="-IiezHLQpp2U1VbSaJ5H-1" vertex="1">
          <mxGeometry x="430" y="50" width="20" height="20" as="geometry" />
        </mxCell>
        <mxCell id="-IiezHLQpp2U1VbSaJ5H-22" value="" style="ellipse;whiteSpace=wrap;html=1;aspect=fixed;" parent="-IiezHLQpp2U1VbSaJ5H-1" vertex="1">
          <mxGeometry x="470" y="50" width="20" height="20" as="geometry" />
        </mxCell>
        <mxCell id="-IiezHLQpp2U1VbSaJ5H-23" value="" style="endArrow=baseDash;html=1;rounded=0;startArrow=baseDash;startFill=0;endFill=0;" parent="-IiezHLQpp2U1VbSaJ5H-1" target="-IiezHLQpp2U1VbSaJ5H-24" edge="1">
          <mxGeometry width="50" height="50" relative="1" as="geometry">
            <mxPoint x="400" y="100" as="sourcePoint" />
            <mxPoint x="440" y="60" as="targetPoint" />
          </mxGeometry>
        </mxCell>
        <mxCell id="-IiezHLQpp2U1VbSaJ5H-24" value="" style="ellipse;whiteSpace=wrap;html=1;aspect=fixed;" parent="-IiezHLQpp2U1VbSaJ5H-1" vertex="1">
          <mxGeometry x="390" y="90" width="20" height="20" as="geometry" />
        </mxCell>
        <mxCell id="-IiezHLQpp2U1VbSaJ5H-25" value="" style="endArrow=baseDash;html=1;rounded=0;startArrow=baseDash;startFill=0;endFill=0;" parent="-IiezHLQpp2U1VbSaJ5H-1" target="-IiezHLQpp2U1VbSaJ5H-26" edge="1">
          <mxGeometry width="50" height="50" relative="1" as="geometry">
            <mxPoint x="520" y="100" as="sourcePoint" />
            <mxPoint x="480" y="60" as="targetPoint" />
          </mxGeometry>
        </mxCell>
        <mxCell id="-IiezHLQpp2U1VbSaJ5H-26" value="" style="ellipse;whiteSpace=wrap;html=1;aspect=fixed;" parent="-IiezHLQpp2U1VbSaJ5H-1" vertex="1">
          <mxGeometry x="510" y="90" width="20" height="20" as="geometry" />
        </mxCell>
        <mxCell id="-IiezHLQpp2U1VbSaJ5H-27" value="" style="endArrow=none;html=1;rounded=0;fillColor=#e51400;strokeColor=#0000FF;strokeWidth=2;exitX=0;exitY=0.5;exitDx=0;exitDy=0;entryX=1;entryY=0.5;entryDx=0;entryDy=0;" parent="-IiezHLQpp2U1VbSaJ5H-1" source="-IiezHLQpp2U1VbSaJ5H-21" target="-IiezHLQpp2U1VbSaJ5H-21" edge="1">
          <mxGeometry width="50" height="50" relative="1" as="geometry">
            <mxPoint x="320" y="70" as="sourcePoint" />
            <mxPoint x="350" y="60" as="targetPoint" />
          </mxGeometry>
        </mxCell>
        <mxCell id="-IiezHLQpp2U1VbSaJ5H-28" value="" style="endArrow=none;html=1;rounded=0;fillColor=#e51400;strokeColor=#0000FF;strokeWidth=2;exitX=0;exitY=0.5;exitDx=0;exitDy=0;entryX=1;entryY=0.5;entryDx=0;entryDy=0;" parent="-IiezHLQpp2U1VbSaJ5H-1" edge="1">
          <mxGeometry width="50" height="50" relative="1" as="geometry">
            <mxPoint x="470" y="60" as="sourcePoint" />
            <mxPoint x="490" y="60" as="targetPoint" />
          </mxGeometry>
        </mxCell>
        <mxCell id="-IiezHLQpp2U1VbSaJ5H-29" value="" style="endArrow=none;html=1;rounded=0;fillColor=#e51400;strokeColor=#0000FF;strokeWidth=2;exitX=1;exitY=0;exitDx=0;exitDy=0;entryX=0;entryY=1;entryDx=0;entryDy=0;" parent="-IiezHLQpp2U1VbSaJ5H-1" source="-IiezHLQpp2U1VbSaJ5H-24" target="-IiezHLQpp2U1VbSaJ5H-24" edge="1">
          <mxGeometry width="50" height="50" relative="1" as="geometry">
            <mxPoint x="450" y="80" as="sourcePoint" />
            <mxPoint x="470" y="80" as="targetPoint" />
          </mxGeometry>
        </mxCell>
        <mxCell id="-IiezHLQpp2U1VbSaJ5H-30" value="" style="endArrow=none;html=1;rounded=0;fillColor=#e51400;strokeColor=#0000FF;strokeWidth=2;exitX=0;exitY=0;exitDx=0;exitDy=0;entryX=1;entryY=1;entryDx=0;entryDy=0;" parent="-IiezHLQpp2U1VbSaJ5H-1" source="-IiezHLQpp2U1VbSaJ5H-26" target="-IiezHLQpp2U1VbSaJ5H-26" edge="1">
          <mxGeometry width="50" height="50" relative="1" as="geometry">
            <mxPoint x="510" y="99.82" as="sourcePoint" />
            <mxPoint x="530" y="99.82" as="targetPoint" />
          </mxGeometry>
        </mxCell>
      </root>
    </mxGraphModel>
  </diagram>
  <diagram name="pattern4" id="GofOoyZXz3otkXVmYKWo">
    <mxGraphModel dx="984" dy="718" grid="1" gridSize="10" guides="1" tooltips="1" connect="1" arrows="1" fold="1" page="1" pageScale="1" pageWidth="827" pageHeight="1169" math="0" shadow="0">
      <root>
        <mxCell id="AQSeIR6S58tue8VEiecH-0" />
        <mxCell id="AQSeIR6S58tue8VEiecH-1" parent="AQSeIR6S58tue8VEiecH-0" />
        <mxCell id="AQSeIR6S58tue8VEiecH-2" value="" style="rounded=0;whiteSpace=wrap;html=1;" parent="AQSeIR6S58tue8VEiecH-1" vertex="1">
          <mxGeometry x="430" y="140" width="60" height="20" as="geometry" />
        </mxCell>
        <mxCell id="AQSeIR6S58tue8VEiecH-3" value="" style="rounded=0;whiteSpace=wrap;html=1;" parent="AQSeIR6S58tue8VEiecH-1" vertex="1">
          <mxGeometry x="430" width="60" height="20" as="geometry" />
        </mxCell>
        <mxCell id="AQSeIR6S58tue8VEiecH-4" value="" style="endArrow=baseDash;html=1;rounded=0;startArrow=baseDash;startFill=0;endFill=0;fillColor=#e51400;strokeColor=#B20000;" parent="AQSeIR6S58tue8VEiecH-1" edge="1">
          <mxGeometry width="50" height="50" relative="1" as="geometry">
            <mxPoint x="400" y="100" as="sourcePoint" />
            <mxPoint x="520" y="100" as="targetPoint" />
          </mxGeometry>
        </mxCell>
        <mxCell id="AQSeIR6S58tue8VEiecH-5" value="" style="endArrow=baseDash;html=1;rounded=0;startArrow=baseDash;startFill=0;endFill=0;" parent="AQSeIR6S58tue8VEiecH-1" edge="1">
          <mxGeometry width="50" height="50" relative="1" as="geometry">
            <mxPoint x="440" y="60" as="sourcePoint" />
            <mxPoint x="480" y="60" as="targetPoint" />
          </mxGeometry>
        </mxCell>
        <mxCell id="AQSeIR6S58tue8VEiecH-6" value="" style="endArrow=baseDash;html=1;rounded=0;startArrow=baseDash;startFill=0;endFill=0;" parent="AQSeIR6S58tue8VEiecH-1" source="AQSeIR6S58tue8VEiecH-24" edge="1">
          <mxGeometry width="50" height="50" relative="1" as="geometry">
            <mxPoint x="400" y="100" as="sourcePoint" />
            <mxPoint x="440" y="60" as="targetPoint" />
          </mxGeometry>
        </mxCell>
        <mxCell id="AQSeIR6S58tue8VEiecH-7" value="" style="endArrow=baseDash;html=1;rounded=0;startArrow=baseDash;startFill=0;endFill=0;" parent="AQSeIR6S58tue8VEiecH-1" source="AQSeIR6S58tue8VEiecH-26" edge="1">
          <mxGeometry width="50" height="50" relative="1" as="geometry">
            <mxPoint x="520" y="100" as="sourcePoint" />
            <mxPoint x="480" y="60" as="targetPoint" />
          </mxGeometry>
        </mxCell>
        <mxCell id="AQSeIR6S58tue8VEiecH-8" value="" style="endArrow=baseDash;html=1;rounded=0;startArrow=baseDash;startFill=0;endFill=0;" parent="AQSeIR6S58tue8VEiecH-1" edge="1">
          <mxGeometry width="50" height="50" relative="1" as="geometry">
            <mxPoint x="480" y="60" as="sourcePoint" />
            <mxPoint x="520" y="100" as="targetPoint" />
            <Array as="points">
              <mxPoint x="560" y="60" />
              <mxPoint x="580" y="40" />
              <mxPoint x="640" y="40" />
              <mxPoint x="640" y="120" />
              <mxPoint x="580" y="120" />
              <mxPoint x="560" y="100" />
            </Array>
          </mxGeometry>
        </mxCell>
        <mxCell id="AQSeIR6S58tue8VEiecH-9" value="j0a" style="text;html=1;strokeColor=none;fillColor=none;align=center;verticalAlign=middle;whiteSpace=wrap;rounded=0;fontFamily=Lucida Console;" parent="AQSeIR6S58tue8VEiecH-1" vertex="1">
          <mxGeometry x="390" y="110" width="40" height="20" as="geometry" />
        </mxCell>
        <mxCell id="AQSeIR6S58tue8VEiecH-10" value="j0b" style="text;html=1;strokeColor=none;fillColor=none;align=center;verticalAlign=middle;whiteSpace=wrap;rounded=0;fontFamily=Lucida Console;" parent="AQSeIR6S58tue8VEiecH-1" vertex="1">
          <mxGeometry x="420" y="20" width="40" height="20" as="geometry" />
        </mxCell>
        <mxCell id="AQSeIR6S58tue8VEiecH-11" value="j1a" style="text;html=1;strokeColor=none;fillColor=none;align=center;verticalAlign=middle;whiteSpace=wrap;rounded=0;fontFamily=Lucida Console;" parent="AQSeIR6S58tue8VEiecH-1" vertex="1">
          <mxGeometry x="500" y="110" width="40" height="20" as="geometry" />
        </mxCell>
        <mxCell id="AQSeIR6S58tue8VEiecH-12" value="j1b" style="text;html=1;strokeColor=none;fillColor=none;align=center;verticalAlign=middle;whiteSpace=wrap;rounded=0;fontFamily=Lucida Console;" parent="AQSeIR6S58tue8VEiecH-1" vertex="1">
          <mxGeometry x="460" y="20" width="40" height="20" as="geometry" />
        </mxCell>
        <mxCell id="AQSeIR6S58tue8VEiecH-13" value="s1" style="text;html=1;strokeColor=none;fillColor=none;align=center;verticalAlign=middle;whiteSpace=wrap;rounded=0;fontFamily=Lucida Console;" parent="AQSeIR6S58tue8VEiecH-1" vertex="1">
          <mxGeometry x="440" y="60" width="40" height="20" as="geometry" />
        </mxCell>
        <mxCell id="AQSeIR6S58tue8VEiecH-14" value="s2" style="text;html=1;strokeColor=none;fillColor=none;align=center;verticalAlign=middle;whiteSpace=wrap;rounded=0;fontFamily=Lucida Console;" parent="AQSeIR6S58tue8VEiecH-1" vertex="1">
          <mxGeometry x="600" y="70" width="40" height="20" as="geometry" />
        </mxCell>
        <mxCell id="AQSeIR6S58tue8VEiecH-15" value="s3" style="text;html=1;strokeColor=none;fillColor=none;align=center;verticalAlign=middle;whiteSpace=wrap;rounded=0;fontFamily=Lucida Console;" parent="AQSeIR6S58tue8VEiecH-1" vertex="1">
          <mxGeometry x="440" y="120" width="40" height="20" as="geometry" />
        </mxCell>
        <mxCell id="AQSeIR6S58tue8VEiecH-16" value="s4" style="text;html=1;strokeColor=none;fillColor=none;align=center;verticalAlign=middle;whiteSpace=wrap;rounded=0;fontFamily=Lucida Console;" parent="AQSeIR6S58tue8VEiecH-1" vertex="1">
          <mxGeometry x="380" y="70" width="40" height="20" as="geometry" />
        </mxCell>
        <mxCell id="AQSeIR6S58tue8VEiecH-17" value="s5" style="text;html=1;strokeColor=none;fillColor=none;align=center;verticalAlign=middle;whiteSpace=wrap;rounded=0;fontFamily=Lucida Console;" parent="AQSeIR6S58tue8VEiecH-1" vertex="1">
          <mxGeometry x="500" y="70" width="40" height="20" as="geometry" />
        </mxCell>
        <mxCell id="AQSeIR6S58tue8VEiecH-18" value="" style="endArrow=none;html=1;rounded=0;" parent="AQSeIR6S58tue8VEiecH-1" source="AQSeIR6S58tue8VEiecH-21" edge="1">
          <mxGeometry width="50" height="50" relative="1" as="geometry">
            <mxPoint x="370" y="60" as="sourcePoint" />
            <mxPoint x="440" y="60" as="targetPoint" />
          </mxGeometry>
        </mxCell>
        <mxCell id="AQSeIR6S58tue8VEiecH-19" value="" style="endArrow=none;html=1;rounded=0;" parent="AQSeIR6S58tue8VEiecH-1" edge="1">
          <mxGeometry width="50" height="50" relative="1" as="geometry">
            <mxPoint x="370" y="100" as="sourcePoint" />
            <mxPoint x="400" y="100" as="targetPoint" />
          </mxGeometry>
        </mxCell>
        <mxCell id="AQSeIR6S58tue8VEiecH-20" value="" style="endArrow=none;html=1;rounded=0;" parent="AQSeIR6S58tue8VEiecH-1" target="AQSeIR6S58tue8VEiecH-21" edge="1">
          <mxGeometry width="50" height="50" relative="1" as="geometry">
            <mxPoint x="370" y="60" as="sourcePoint" />
            <mxPoint x="440" y="60" as="targetPoint" />
          </mxGeometry>
        </mxCell>
        <mxCell id="AQSeIR6S58tue8VEiecH-21" value="" style="ellipse;whiteSpace=wrap;html=1;aspect=fixed;" parent="AQSeIR6S58tue8VEiecH-1" vertex="1">
          <mxGeometry x="430" y="50" width="20" height="20" as="geometry" />
        </mxCell>
        <mxCell id="AQSeIR6S58tue8VEiecH-22" value="" style="ellipse;whiteSpace=wrap;html=1;aspect=fixed;" parent="AQSeIR6S58tue8VEiecH-1" vertex="1">
          <mxGeometry x="470" y="50" width="20" height="20" as="geometry" />
        </mxCell>
        <mxCell id="AQSeIR6S58tue8VEiecH-23" value="" style="endArrow=baseDash;html=1;rounded=0;startArrow=baseDash;startFill=0;endFill=0;" parent="AQSeIR6S58tue8VEiecH-1" target="AQSeIR6S58tue8VEiecH-24" edge="1">
          <mxGeometry width="50" height="50" relative="1" as="geometry">
            <mxPoint x="400" y="100" as="sourcePoint" />
            <mxPoint x="440" y="60" as="targetPoint" />
          </mxGeometry>
        </mxCell>
        <mxCell id="AQSeIR6S58tue8VEiecH-24" value="" style="ellipse;whiteSpace=wrap;html=1;aspect=fixed;" parent="AQSeIR6S58tue8VEiecH-1" vertex="1">
          <mxGeometry x="390" y="90" width="20" height="20" as="geometry" />
        </mxCell>
        <mxCell id="AQSeIR6S58tue8VEiecH-25" value="" style="endArrow=baseDash;html=1;rounded=0;startArrow=baseDash;startFill=0;endFill=0;" parent="AQSeIR6S58tue8VEiecH-1" target="AQSeIR6S58tue8VEiecH-26" edge="1">
          <mxGeometry width="50" height="50" relative="1" as="geometry">
            <mxPoint x="520" y="100" as="sourcePoint" />
            <mxPoint x="480" y="60" as="targetPoint" />
          </mxGeometry>
        </mxCell>
        <mxCell id="AQSeIR6S58tue8VEiecH-26" value="" style="ellipse;whiteSpace=wrap;html=1;aspect=fixed;" parent="AQSeIR6S58tue8VEiecH-1" vertex="1">
          <mxGeometry x="510" y="90" width="20" height="20" as="geometry" />
        </mxCell>
        <mxCell id="AQSeIR6S58tue8VEiecH-27" value="" style="endArrow=none;html=1;rounded=0;fillColor=#e51400;strokeColor=#0000FF;strokeWidth=2;exitX=0;exitY=1;exitDx=0;exitDy=0;entryX=1;entryY=0;entryDx=0;entryDy=0;" parent="AQSeIR6S58tue8VEiecH-1" source="AQSeIR6S58tue8VEiecH-21" target="AQSeIR6S58tue8VEiecH-21" edge="1">
          <mxGeometry width="50" height="50" relative="1" as="geometry">
            <mxPoint x="320" y="70" as="sourcePoint" />
            <mxPoint x="350" y="60" as="targetPoint" />
          </mxGeometry>
        </mxCell>
        <mxCell id="AQSeIR6S58tue8VEiecH-28" value="" style="endArrow=none;html=1;rounded=0;fillColor=#e51400;strokeColor=#0000FF;strokeWidth=2;exitX=0;exitY=0;exitDx=0;exitDy=0;entryX=1;entryY=1;entryDx=0;entryDy=0;" parent="AQSeIR6S58tue8VEiecH-1" source="AQSeIR6S58tue8VEiecH-22" target="AQSeIR6S58tue8VEiecH-22" edge="1">
          <mxGeometry width="50" height="50" relative="1" as="geometry">
            <mxPoint x="470" y="60" as="sourcePoint" />
            <mxPoint x="490" y="60" as="targetPoint" />
          </mxGeometry>
        </mxCell>
        <mxCell id="AQSeIR6S58tue8VEiecH-29" value="" style="endArrow=none;html=1;rounded=0;fillColor=#e51400;strokeColor=#0000FF;strokeWidth=2;exitX=1;exitY=0;exitDx=0;exitDy=0;entryX=0;entryY=1;entryDx=0;entryDy=0;" parent="AQSeIR6S58tue8VEiecH-1" source="AQSeIR6S58tue8VEiecH-24" target="AQSeIR6S58tue8VEiecH-24" edge="1">
          <mxGeometry width="50" height="50" relative="1" as="geometry">
            <mxPoint x="450" y="80" as="sourcePoint" />
            <mxPoint x="470" y="80" as="targetPoint" />
          </mxGeometry>
        </mxCell>
        <mxCell id="AQSeIR6S58tue8VEiecH-30" value="" style="endArrow=none;html=1;rounded=0;fillColor=#e51400;strokeColor=#0000FF;strokeWidth=2;exitX=0;exitY=0;exitDx=0;exitDy=0;entryX=1;entryY=1;entryDx=0;entryDy=0;" parent="AQSeIR6S58tue8VEiecH-1" source="AQSeIR6S58tue8VEiecH-26" target="AQSeIR6S58tue8VEiecH-26" edge="1">
          <mxGeometry width="50" height="50" relative="1" as="geometry">
            <mxPoint x="510" y="99.82" as="sourcePoint" />
            <mxPoint x="530" y="99.82" as="targetPoint" />
          </mxGeometry>
        </mxCell>
      </root>
    </mxGraphModel>
  </diagram>
</mxfile>
